<svg width="262" height="178" viewBox="0 0 262 178" fill="none" xmlns="http://www.w3.org/2000/svg">
<path d="M133 7C87.7854 7 51 43.7849 51 89C51 134.215 87.7849 171 133 171C178.215 171 215 134.215 215 89C215 43.7849 178.216 7 133 7ZM133 164.653C90.0266 164.653 57.2919 129.711 57.2919 89C57.2919 48.2889 90.0266 13.347 133 13.347C175.973 13.347 208.708 48.2889 208.708 89C208.708 129.711 175.973 164.653 133 164.653Z" fill="#DDDDDD"/>
<path d="M132.999 25.0747C121.265 25.0747 109.789 28.2836 99.813 34.3547C98.0818 35.4079 96.4859 37.6654 97.5396 39.3965C98.5927 41.1272 100.85 40.686 102.581 39.6319C111.408 34.2608 120.648 31.4215 133 31.4217C165.71 31.4222 190.633 58.0122 190.633 89C190.633 119.988 165.71 146.578 133 146.578C100.291 146.578 75.9353 119.983 75.3681 89C75.0565 71.9791 81.1672 58.9065 91.6975 48.2461C93.1214 46.8045 94.1538 44.4815 92.7123 43.0575C91.2707 41.6335 88.9476 42.6397 87.5237 44.0808C75.6276 56.1236 69.0762 72.0763 69.0762 89C69.0762 124.248 97.7526 152.925 133 152.925C168.249 152.925 196.925 124.248 196.925 89C196.925 53.7516 168.248 25.0747 132.999 25.0747Z" fill="#DDDDDD"/>
<path d="M102.627 81.1155C100.6 81.1155 98.957 82.7581 98.957 84.7847V90.2815C98.957 92.3081 100.6 93.9507 102.627 93.9507C104.653 93.9507 106.296 92.3081 106.296 90.2815V84.7847C106.296 82.7581 104.653 81.1155 102.627 81.1155Z" fill="#DDDDDD"/>
<path d="M163.374 81.1155C161.347 81.1155 159.705 82.7581 159.705 84.7847V90.2815C159.705 92.3081 161.347 93.9507 163.374 93.9507C165.4 93.9507 167.043 92.3081 167.043 90.2815V84.7847C167.043 82.7581 165.4 81.1155 163.374 81.1155Z" fill="#DDDDDD"/>
<path d="M123.089 95.9765C124.614 97.3105 126.932 97.1549 128.266 95.6292C129.412 94.3188 131.137 93.5669 133 93.5669C134.863 93.5669 136.589 94.3188 137.734 95.6292C139.068 97.1554 141.386 97.3105 142.912 95.977C144.437 94.6436 144.593 92.3254 143.259 90.7997C140.72 87.895 136.981 86.2289 133 86.2289C129.019 86.2289 125.28 87.8945 122.74 90.7997C121.408 92.3249 121.563 94.6421 123.089 95.9765Z" fill="#DDDDDD"/>
<path d="M257.588 106.356V7.54409C257.588 3.38461 254.52 0 250.749 0C249.09 0 247.483 0.680851 246.225 1.91754C241.441 6.62045 218.625 33.7361 235.592 108.615C233.917 111.233 232.928 114.424 232.928 117.868V166.649C232.928 172.908 237.535 178 243.198 178H251.73C257.393 178 262 172.909 262 166.649V117.868C262 113.357 260.306 109.277 257.588 106.356ZM238.313 36.6826C239.164 31.9968 242.544 16.2288 250.576 8.01779V102.17C249.556 101.925 248.506 101.803 247.463 101.803C245.379 101.803 243.397 102.295 241.603 103.171C236.088 77.3713 234.98 55.0237 238.313 36.6826ZM254.988 166.65C254.988 168.635 253.527 170.251 251.73 170.251H243.198C241.402 170.251 239.94 168.636 239.94 166.65C239.94 166.65 239.94 117.875 239.94 117.868C239.94 113.378 243.377 109.553 247.464 109.553C251.559 109.553 254.988 113.35 254.988 117.868V166.65Z" fill="#DDDDDD"/>
<path d="M52.5924 10.1557C49.288 4.52761 45.7269 2.45718 45.3315 2.2397C43.333 1.1399 40.8628 2.4298 40.3552 4.82516L37.7318 17.2085C37.7318 17.2085 31.6352 3.96816 31.6273 3.95111C30.3518 1.1802 26.6515 1.18484 25.3783 3.95111L19.2742 17.208C19.2742 17.208 16.6517 4.83136 16.6503 4.82465C16.1427 2.42876 13.6702 1.14145 11.674 2.23918C11.2791 2.45666 7.71759 4.5271 4.41316 10.1547C-2.27188 21.5395 -1.27915 36.8033 6.82769 47.2743L12.613 54.7461C16.3311 59.5482 18.3792 65.6743 18.3792 71.9941V106.354C15.6608 109.275 13.9675 113.355 13.9675 117.867V166.648C13.9675 172.907 18.5741 177.999 24.2374 177.999H32.7691C38.4319 177.999 43.0385 172.907 43.0385 166.648V117.867C43.0385 113.355 41.3452 109.275 38.6268 106.354V71.9941C38.6268 65.6748 40.6749 59.5498 44.393 54.7472L50.1783 47.2754C58.2842 36.8049 59.2774 21.5406 52.5924 10.1557ZM36.0268 166.65C36.0268 168.635 34.5657 170.251 32.7691 170.251H24.2369C22.4403 170.251 20.9788 168.636 20.9788 166.65C20.9788 166.65 20.9788 117.89 20.9788 117.868C20.9788 113.417 24.4716 109.552 28.5028 109.552C32.599 109.552 36.0268 113.346 36.0268 117.868V166.65ZM44.8506 42.2377L39.0653 49.7085C34.261 55.9141 31.6151 63.8286 31.6151 71.9951V102.169C31.5277 102.148 31.4394 102.13 31.351 102.114C30.4163 101.908 29.4586 101.803 28.5046 101.803C28.2438 101.803 25.3904 101.885 25.3904 102.169V71.9957C25.3904 63.8291 22.7446 55.9141 17.9403 49.709L12.1554 42.2377C6.05416 34.3573 5.28951 22.8997 10.2957 14.3751C10.5911 13.8715 10.8874 13.4107 11.1791 12.9891C11.1791 12.9891 13.702 24.8983 13.7058 24.9154C14.7429 29.8115 20.9573 30.6421 23.0199 26.1608L28.5023 14.2532C28.5023 14.2532 33.9777 26.1464 33.9848 26.1608C36.0557 30.6587 42.2612 29.8135 43.2998 24.9164L45.8265 12.9897C46.1181 13.4112 46.414 13.872 46.7098 14.3756C51.716 22.9002 50.9509 34.3579 44.8506 42.2377Z" fill="#DDDDDD"/>
</svg>
